<svg id="Layer_1" data-name="Layer 1" xmlns="http://www.w3.org/2000/svg" xmlns:xlink="http://www.w3.org/1999/xlink" width="454.06" height="82.25" viewBox="0 0 454.06 82.25"><defs><style>.cls-1{fill:url(#radial-gradient);}.cls-2{fill:url(#radial-gradient-2);}.cls-3{fill:url(#radial-gradient-3);}</style><radialGradient id="radial-gradient" cx="751.58" cy="304.49" r="26.76" gradientTransform="matrix(1, 0, 0, -1, -312.57, 346.25)" gradientUnits="userSpaceOnUse"><stop offset="0" stop-color="red"/><stop offset="0.15" stop-color="#ef050f"/><stop offset="0.45" stop-color="#c41138"/><stop offset="0.85" stop-color="#802578"/><stop offset="1" stop-color="#662d91"/></radialGradient><radialGradient id="radial-gradient-2" cx="743.25" cy="292.31" r="16.43" xlink:href="#radial-gradient"/><radialGradient id="radial-gradient-3" cx="737.07" cy="283.56" r="10.57" xlink:href="#radial-gradient"/></defs><title>connect-eventz-logo</title><path d="M49,89c-2.75,6.73-9.13,10.71-16.67,10.71-10.4,0-18.35-7.34-18.35-18.61s7.9-18.45,18.35-18.45c8.26,0,14,4.49,16.21,9.74l-4,1.12c-1.33-2.45-4.84-6.93-12.29-6.93-8.26,0-14.07,5.61-14.07,14.58s6.12,14.58,14,14.58a13.76,13.76,0,0,0,12.85-7.8Z" transform="translate(-13.94 -17.44)"/><path d="M67.47,69.91a14.86,14.86,0,1,1,0,29.72,14.86,14.86,0,1,1,0-29.72Zm0,26.05c6.22,0,11-4.59,11-11.17s-4.74-11.21-11-11.21-11,4.54-11,11.21S61.25,96,67.47,96Z" transform="translate(-13.94 -17.44)"/><path d="M108.56,99,92.35,76.54h-.1c0,.05.1,3.11.1,6.53V99h-4V70.47h4.08L108.61,92.6h.1c0-.05-.05-3-.05-6.12v-16h4V99Z" transform="translate(-13.94 -17.44)"/><path d="M140.68,99,124.47,76.54h-.1c0,.05.1,3.11.1,6.53V99h-4V70.47h4.08L140.73,92.6h.1c0-.05-.05-3-.05-6.12v-16h4V99Z" transform="translate(-13.94 -17.44)"/><path d="M152.61,70.47h20V74.2H156.59v8.26H169v3.62H156.59V95.3H172.9V99H152.61Z" transform="translate(-13.94 -17.44)"/><path d="M205.07,91.27a14.62,14.62,0,0,1-13.56,8.36c-8.72,0-15.14-6.27-15.14-14.89s6.42-14.83,15.09-14.83c5.71,0,11,2.7,13.41,8.41l-3.77,1a10.53,10.53,0,0,0-9.58-5.76c-6.47,0-11.11,4.59-11.11,11.16S185.14,96,191.46,96a10.8,10.8,0,0,0,9.79-5.71Z" transform="translate(-13.94 -17.44)"/><path d="M221.74,74.2V99h-4V74.2h-9.94V70.47h23.91V74.2Z" transform="translate(-13.94 -17.44)"/><path d="M250.29,63.34h24v3.87H254.42V78.43h15.5V82.3h-15.5V95.15h20V99H250.29Z" transform="translate(-13.94 -17.44)"/><path d="M290,99,277.82,70.47h4.38l6,14c2.91,6.83,4.18,10,4.23,10.14h.1c.05-.1,1.22-3.16,4.18-10.09l5.91-14h4.23L294.6,99Z" transform="translate(-13.94 -17.44)"/><path d="M311.63,70.47h20V74.2H315.6v8.26H328v3.62H315.6V95.3h16.31V99H311.63Z" transform="translate(-13.94 -17.44)"/><path d="M358.58,99,342.37,76.54h-.1c0,.05.1,3.11.1,6.53V99h-4V70.47h4.08L358.63,92.6h.1c0-.05-.05-3-.05-6.12v-16h4V99Z" transform="translate(-13.94 -17.44)"/><path d="M382.39,74.2V99h-4V74.2h-9.94V70.47h23.91V74.2Z" transform="translate(-13.94 -17.44)"/><path d="M406.86,89.59c-4.23,4.79-5.3,5.61-5.3,5.66l.1.1s1.53-.05,3.88-.05h15V99H396.41V95.25l14.27-15.8c3.67-4.08,4.74-5.1,4.74-5.15l-.1-.1H396.82V70.47h23.71v3.77Z" transform="translate(-13.94 -17.44)"/><path class="cls-1" d="M467.14,48.15a39,39,0,0,1,.82,9.67c-.05,1.23-.16,2.45-.32,3.64a7,7,0,0,1-13.53-3.07H454a24.9,24.9,0,0,0-34.18-25.22v0a6.89,6.89,0,0,1-1.33.43A7,7,0,0,1,413.09,21q1.31-.6,2.69-1.11a38.78,38.78,0,0,1,51.36,28.3Z" transform="translate(-13.94 -17.44)"/><path class="cls-2" d="M448,57.87a23.78,23.78,0,0,1,.51,5.92c0,.75-.1,1.5-.2,2.24A4.31,4.31,0,0,1,440,64.15h-.06a15.33,15.33,0,0,0-21-15.45v0a4.25,4.25,0,0,1-.82.26,4.29,4.29,0,0,1-3.33-7.74q.81-.37,1.66-.68A23.84,23.84,0,0,1,448,57.87Z" transform="translate(-13.94 -17.44)"/><path class="cls-3" d="M435.62,65.23a15.41,15.41,0,0,1,.32,3.82c0,.49-.06,1-.13,1.44a2.77,2.77,0,0,1-5.35-1.21h0a9.85,9.85,0,0,0-13.51-10h0a2.72,2.72,0,0,1-.52.17,2.77,2.77,0,0,1-2.13-5q.52-.24,1.06-.44a15.33,15.33,0,0,1,20.31,11.2Z" transform="translate(-13.94 -17.44)"/></svg>